<svg xmlns="http://www.w3.org/2000/svg" width="133" height="137" viewBox="0 0 133 137">
    <g fill="#EB8F12" fill-rule="evenodd">
        <path d="M3.236 130.175c.093.102.19.346.16.596.378-3.153.413-5.724.289-11.207l-.003-.14c-.057-2.483-.074-3.583-.066-4.95.001-.156.026-.32.108-.724.059-.291.083-.42.11-.6.103-.692.078-1.297-.151-1.924l-1.41.514.697 1.328.199-.102.094-.048c.321-.164.484-.25.683-.366.69-.403.978-.359 1.455.211 1.54 1.84 2.856 3.428 5.47 6.592l.535.648 1.286 1.557c1.748 2.113 3.195 2.166 4.835-.001.254-.336.458-.618.885-1.22l.019-.025c.885-1.248 1.286-1.77 1.781-2.275.664-.676 1.177-1.277 2.161-2.489l.114-.14c1.268-1.561 1.886-2.257 2.701-2.97.475-.414 1.258-.066 1.354.729.042.351.047.666.03 1.413v.029c-.007.315-.01.48-.01.675a41642.253 41642.253 0 0 1 0 19.39v1.5h13.514v-3.417a524221.092 524221.092 0 0 1 .002-34.318l-.003-.311-.002-.13c-.006-.455.018-.647.078-.772.3-.636 1.02-.691 1.621.023a489.172 489.172 0 0 1 4.447 5.368l.035.043a939.948 939.948 0 0 0 2.306 2.803c.02.023.045.056.087.114l.115.158c.401.541.814.907 1.466 1.157l1.746.67.276-1.849a79130.083 79130.083 0 0 0 1.661-11.132l.046-.308c1.325-8.856 2.386-15.94 4.774-31.88-.018.097-.018.097-.02.098l.007-.028c.041-.165.063-.312.05-.52-.157-3.059 1.232-5.157 4.318-6.777.771-.405 1.331-.817 2.435-1.715l.154-.126.253-.206c.317-.255.647-.257 1.077.036l.577.395.07.048c1.673 1.142 2.434 1.685 3.297 2.387.346.282.684.491 1.181.756l.232.123c.197.104.306.163.413.226.785.463 1.037 1.052 1.225 2.619l.034.292c.054.464.082.685.125.958.75 4.738 1.313 8.542 2.55 17.09a59519.215 59519.215 0 0 0 .484 3.336 3236.518 3236.518 0 0 1 1.367 9.528c.621 4.352.978 6.831 1.374 9.536l.033.222c.113.752.242 1.506.435 2.566l.245 1.338c.101.55.179.982.255 1.416l.579 3.285 2.074-2.613c.376-.475 2.216-2.745 2.711-3.375.452-.575.847-1.095 1.216-1.604.519-.716.998-1.273 2.114-2.494l.018-.02c1.108-1.214 1.602-1.782 2.177-2.55-.043.057-.052.061.008.054.151-.017.347.017.52.1l.114.054.028.013c.553.262.488.198.486.233-.027.361-.02.623.012 1.18.01.15.013.217.016.295.005.1.007.183.007.26.003 11.437.005 22.874.005 34.313v3.056h12.6l.45-.573a2.34 2.34 0 0 0 .49-1.26c.025-.267.016-.442-.019-.802l-.002-.024a2.48 2.48 0 0 1-.016-.215c.006-2.8.008-5.04.009-10.08 0-4.756.002-6.87.007-9.513.002-1.122.386-1.504 1.114-1.388.207.033.389.174.802.675 2.054 2.491 3.7 4.48 7.407 8.952l.082.099c.183.219.904 1.049.902 1.046l1.157 1.344 1.134-1.364 2.398-2.887c.914-1.1 1.65-1.986 2.357-2.84l.097-.117.828-.997.078-.093a208.73 208.73 0 0 0 2.717-3.31c.416-.52.736-.633 1.203-.472.427.149.595.434.594 1.13-.002 1.842-.002 3.315-.001 6.63v1.546c0 3.498-.001 5.808-.008 8.168l3 .01c.007-2.365.009-4.678.008-8.179v-1.547c-.001-3.312-.001-4.785.001-6.624.002-1.885-.865-3.36-2.613-3.969-1.738-.599-3.357-.03-4.526 1.432a206.41 206.41 0 0 1-2.682 3.267l-.078.093-.83 1-.098.118-2.355 2.837-2.398 2.887 1.154.958 1.137-.978c-.016-.019-.713-.82-.874-1.013l-.07-.085a4270.703 4270.703 0 0 1-7.407-8.95c-.84-1.019-1.523-1.55-2.642-1.73-2.67-.426-4.582 1.484-4.588 4.345-.005 2.645-.007 4.76-.007 9.52-.001 5.036-.003 7.274-.009 10.071 0 .164.009.293.03.51l.002.024c.016.17.02.227.018.24a.642.642 0 0 1 .139-.32l1.179.928v-1.5H94.487l1.5 1.5v-1.556c0-11.44-.002-22.876-.005-34.317 0-.127-.003-.253-.01-.392a22.418 22.418 0 0 0-.018-.335c-.025-.424-.03-.597-.016-.779.127-1.676-.624-2.426-2.193-3.17l-.028-.012-.103-.05c-1.473-.704-3.293-.496-4.227.758-.496.662-.946 1.18-1.989 2.323l-.017.019c-1.192 1.305-1.721 1.919-2.328 2.757a48.66 48.66 0 0 1-1.146 1.51c-.478.609-2.31 2.871-2.702 3.364l2.652.672a209.8 209.8 0 0 0-.259-1.435l-.244-1.335a80.669 80.669 0 0 1-.42-2.476l-.032-.21c-.395-2.7-.751-5.176-1.372-9.525l-.124-.867a3238.801 3238.801 0 0 0-1.668-11.59l-.06-.413c-1.24-8.561-1.804-12.374-2.556-17.13-.035-.218-.059-.41-.108-.833l-.035-.304c-.289-2.408-.878-3.784-2.682-4.847-.158-.093-.3-.17-.535-.294l-.22-.117c-.34-.18-.536-.302-.699-.435-.95-.773-1.758-1.35-3.5-2.539l-.07-.048-.574-.392c-1.493-1.02-3.275-1.01-4.654.104l-.264.214-.155.127c-.95.773-1.4 1.104-1.935 1.385-4.06 2.132-6.14 5.273-5.918 9.604-.01-.152.006-.26.033-.369v.001c-.016.054-.016.054-.047.239l.005-.036c-2.388 15.94-3.45 23.024-4.774 31.88l-.046.308a10733.09 10733.09 0 0 0-1.662 11.134l1.484.221.538-1.4c-.032-.013-.04-.02-.132-.143l-.1-.137a5.035 5.035 0 0 0-.2-.261c-.641-.776-1.164-1.411-2.3-2.795l-.035-.042a491.45 491.45 0 0 0-4.471-5.399c-1.959-2.323-5.354-2.06-6.625.623-.31.65-.378 1.212-.368 2.095a42.416 42.416 0 0 0 .005.406 188475.452 188475.452 0 0 0-.002 34.318v1.917l1.5-1.5H28.063l1.5 1.5a84300.9 84300.9 0 0 1 0-19.394c0-.166.002-.314.008-.606v-.03c.02-.888.015-1.297-.05-1.837-.376-3.103-3.948-4.687-6.306-2.628-.986.861-1.683 1.646-3.057 3.338l-.113.14c-.927 1.141-1.396 1.69-1.974 2.28-.646.658-1.105 1.256-2.086 2.638l-.019.026c-.41.576-.6.841-.83 1.144-.225.297-.374.47-.458.543.067-.058.238-.136.501-.126.23.008.347.067.372.088-.109-.094-.28-.282-.547-.604l-1.285-1.555-.536-.649c-2.617-3.168-3.936-4.76-5.481-6.606-1.432-1.71-3.337-2.006-5.268-.877-.133.078-.26.145-.533.284l-.096.049-.228.117-1.162.61.45 1.233c.032.089.037.215.001.455a8.41 8.41 0 0 1-.083.447c-.12.593-.164.886-.167 1.3-.008 1.405.01 2.525.066 5.036l.004.14c.12 5.343.087 7.815-.269 10.78-.084.7.148 1.285.601 1.783l2.218-2.02z"/>
        <path d="M73.606 16.85c.433.895 1.149 1.376 2.14 1.52 1.95.279 3.51.51 7.019 1.037 3.516.527 5.08.76 7.037 1.04.66.093.856.22.95.512.119.362.037.62-.371 1.017-.805.78-1.448 1.416-2.862 2.828l-.026.027c-2.844 2.839-4.134 4.087-5.795 5.548-1.968 1.732-2.576 3.653-2.057 6.211.521 2.564.89 4.633 1.683 9.299l.015.085c.217 1.276.325 1.908.453 2.65.077.446 0 .625-.389.869-.44.276-.625.29-.884.126-1.654-1.04-3.023-1.76-6.095-3.272l-.018-.009c-3.204-1.577-4.597-2.316-6.226-3.377-1.081-.703-2.112-.642-3.247-.037A1117.242 1117.242 0 0 1 52.59 49.38c-.857.442-1.367.128-1.323-.768l-.019.176c.152-.895.286-1.723.515-3.166.403-2.534.526-3.291.74-4.52.262-1.508.517-2.836.792-4.095.627-2.875.046-4.936-2.12-6.826-1.842-1.606-3.268-2.987-6.4-6.129l-.042-.041a295.012 295.012 0 0 0-2.56-2.548c.027.025.042.083.052-.006.01-.102.035-.22.09-.454l.036-.148c.046-.192.18-.302.513-.354.924-.143 1.738-.262 3.3-.485l.17-.024c2.054-.293 2.97-.428 4.116-.61.41-.065.83-.146 1.34-.257l.688-.152c1.67-.375 2.37-.495 3.174-.498 2.494-.009 3.693-1.167 4.489-3.482.255-.74.569-1.378 1.244-2.606l.103-.187c.783-1.42 1.135-2.127 1.476-3.071.57-1.58 1.419-3.176 2.831-5.47.255-.414 1.03-.34 1.348.269l6.473 12.94-.01-.02zm2.693-1.324L69.815 2.565C68.453-.05 64.767-.4 63.24 2.089c-1.512 2.455-2.44 4.202-3.097 6.022-.271.75-.574 1.357-1.282 2.643l-.104.188c-.755 1.371-1.124 2.125-1.452 3.075-.424 1.232-.656 1.455-1.664 1.459-1.098.004-1.933.147-3.82.57-.325.073-.481.108-.666.148-.46.1-.829.171-1.176.226-1.124.18-2.03.312-4.069.603l-.17.025c-1.573.224-2.395.344-3.335.49-1.478.229-2.63 1.174-2.973 2.626l-.034.14a6.15 6.15 0 0 0-.156.83c-.101.93.127 1.78.83 2.47a292.748 292.748 0 0 1 2.578 2.567c3.181 3.191 4.641 4.605 6.553 6.272 1.3 1.134 1.565 2.073 1.16 3.926a100.296 100.296 0 0 0-.816 4.22c-.217 1.249-.341 2.013-.747 4.563-.227 1.433-.36 2.254-.51 3.136l-.019.176c-.161 3.24 2.81 5.069 5.693 3.584 4.209-2.17 8.332-4.326 12.378-6.476.255-.136.15-.13.202-.096 1.762 1.147 3.225 1.923 6.537 3.554l.018.009c2.979 1.466 4.286 2.153 5.822 3.12 1.317.83 2.724.723 4.077-.125 1.43-.899 2.031-2.288 1.75-3.92l-.452-2.642-.014-.086c-.799-4.697-1.171-6.787-1.7-9.393-.31-1.524-.048-2.353 1.097-3.362 1.725-1.516 3.045-2.793 5.933-5.677l.027-.027a238.45 238.45 0 0 1 2.83-2.797c1.184-1.15 1.634-2.571 1.137-4.099-.503-1.548-1.697-2.316-3.38-2.554-1.947-.28-3.507-.51-7.016-1.037a970.62 970.62 0 0 0-7.037-1.04c-.043-.006.112.098.135.145l-.01-.019z"/>
    </g>
</svg>
