<svg xmlns="http://www.w3.org/2000/svg" width="99" height="121" viewBox="0 0 99 121">
    <g fill="#EB8F12" fill-rule="evenodd">
        <path d="M94.065 66.157l-.274.052c-.214.039-.455.081-.72.191a437.712 437.712 0 0 1-4.41 1.815c-3.373 1.376-6.863 2.798-10.231 4.378-7.854 3.688-12.475 9.613-13.735 17.612-.31 1.97-.726 3.976-1.129 5.917a244.74 244.74 0 0 0-.636 3.14c-.773 3.982-1.54 7.965-2.311 11.975l-1.286 6.675h1.825l.766.013c.188 0 .37-.006.551-.026 3.98-.404 7.38-1.182 10.393-2.38 8.171-3.252 13.99-9.321 17.79-18.552 2.457-5.97 3.954-12.742 4.71-21.31.157-1.792.258-3.543.366-5.397.049-.838.098-1.682.152-2.536l.128-1.983-1.95.416zM2.627 67.56c.06.915.112 1.803.164 2.671.11 1.871.215 3.638.37 5.42.688 7.921 2.025 14.29 4.207 20.043 4.013 10.575 10.543 17.256 19.964 20.423 3.086 1.038 6.403 1.656 9.855 1.838l1.379.072.195-1.361c.045-.237.098-.502.036-.83-.506-2.617-1.024-5.225-1.542-7.834-1.13-5.682-2.298-11.558-3.283-17.354-1.512-8.892-6.567-15.043-15.455-18.804-2.25-.95-4.505-1.888-6.76-2.826L2.47 65.135l.157 2.424zm7.988-57.423v1.069c0 .412.004.824.009 1.237.008.85.018 1.7-.014 2.548-.596 15.965-1.201 31.93-1.826 47.893-.053 1.37.526 2.283 1.774 2.793l1.675.682c2.814 1.146 5.723 2.33 8.51 3.618 8.598 3.972 13.614 9.902 15.334 18.128 1.586 7.584 3.044 15.331 4.453 22.825l.914 4.85c.303 1.599 1.225 2.375 2.82 2.375 1.709-.024 3.33-.035 4.95-.035 1.719 0 3.439.013 5.158.032h.001c1.063 0 2.335-.382 2.68-2.202.621-3.257 1.257-6.512 1.892-9.767 1.073-5.492 2.182-11.171 3.196-16.776 1.432-7.913 5.678-13.903 12.62-17.801 3.105-1.743 6.527-3.144 9.837-4.498.97-.397 1.938-.795 2.902-1.199 1.69-.712 2.403-1.843 2.313-3.663-.248-4.964-.438-10.018-.622-14.905l-1.354-35.867c-.012-.294-.087-.528-.141-.699l-.055-.175-.668-2.42-1.826 1.73c-2.282 2.164-5.06 3.847-8.746 5.299-1.39.548-2.758.826-4.065.826-1.363 0-2.723-.303-4.044-.9-.987-.445-2.053-.91-3.164-1.282-5.38-1.811-10.768-2.73-16.014-2.73-6.287 0-12.546 1.32-18.604 3.92-1.5.642-2.935.955-4.39.955-1.387 0-2.756-.284-4.183-.868-3.62-1.48-6.31-3.108-8.464-5.127l-.665-.623-2.193.757zm37.871 110.666c-3.486 0-6.667-.039-9.722-.12-9.218-.241-16.614-2.723-22.61-7.586-5.081-4.12-8.839-9.733-11.49-17.16C1.65 87.493.221 78.125.033 65.562l-.016-.707C0 64.26-.015 63.699.025 63.166c.057-.735.554-1.229 1.237-1.229.165 0 .338.03.511.088.487.16.962.353 1.485.563l.842.333 1.918.744.136-2.046.061-.862c.044-.6.086-1.17.107-1.74L7.67 22.134c.25-6.727.499-13.453.723-20.18.031-.92.317-1.466.998-1.863h.738c.53.301.87.765 1.137 1.528 1.213 3.487 2.992 5.988 5.434 7.644 1.679 1.138 3.496 2.04 5.253 2.913l.938.466a7.03 7.03 0 0 0 3.178.771c1.101 0 2.237-.266 3.376-.79 5.369-2.467 11.197-3.786 17.818-4.032a56.346 56.346 0 0 1 2.07-.038c7.084 0 13.855 1.402 20.127 4.166a7.794 7.794 0 0 0 3.036.65c.544 0 1.053-.07 1.511-.205 6.997-2.083 11.335-5.863 13.26-11.557.252-.743.598-1.21 1.133-1.516h.753c.583.328.945.857.991 2.114.475 13.129.975 26.257 1.475 39.385l.287 7.54c.128 3.35.264 6.7.4 10.049l.068 1.654c.007.17.028.337.06.555l.28 2.198 2.476-.973c.445-.176.861-.341 1.282-.5.285-.109.56-.164.818-.164.259 0 .623.057.886.33.232.24.344.61.326 1.071L98.44 64.9c-.186 4.729-.38 9.62-.848 14.38-.67 6.823-2.221 13.2-4.611 18.95-3.884 9.35-9.666 15.626-17.675 19.19-4.651 2.07-9.876 3.17-15.528 3.27-4.354.077-7.943.113-11.293.113z"/>
        <path d="M63.344 30.846c-7.022 0-12.736 5.692-12.736 12.689 0 7.01 5.7 12.74 12.705 12.775h.002c3.439 0 6.64-1.34 9.077-3.77 2.443-2.44 3.785-5.646 3.779-9.03-.013-6.975-5.76-12.655-12.812-12.664h-.015zm-28.191-.002c-7.028.013-12.767 5.7-12.793 12.678-.011 3.363 1.328 6.562 3.772 9.006 2.44 2.44 5.637 3.784 9.002 3.784 7.12-.06 12.81-5.8 12.786-12.798-.026-6.987-5.742-12.67-12.743-12.67h-.024zm7.766 26.865l6.175 6.199 6.305-6.324-6.162-5.784-6.318 5.909zm6.35 9.658c-.407 0-.89-.39-1.224-.716a483.368 483.368 0 0 1-3.142-3.12 384.73 384.73 0 0 0-4.083-4.036c-.565-.547-1.435-.902-2.216-.902-.143 0-.282.013-.413.035-.972.166-1.957.25-2.923.25-6.038 0-11.23-3.16-13.89-8.451-3.098-6.162-1.759-13.316 3.41-18.226l1.795-1.672-1.652-1.078c-.759-.459-1.516-.907-2.268-1.353-1.792-1.063-3.485-2.065-5.144-3.163-.326-.215-.53-.503-.592-.83-.06-.327.024-.671.238-.971.268-.376.672-.608 1.058-.608.196 0 .37.061.534.186 4.644 3.584 10.173 5.353 17.402 5.57 4.562.134 8.423 2.24 11.478 6.261.107.14.224.273.342.403l1.198 1.36 1.139-1.215c.329-.351.645-.706.958-1.056.633-.708 1.231-1.377 1.877-1.953 2.834-2.53 6.175-3.833 9.926-3.877 6.497-.075 11.89-1.836 16.488-5.381a1.22 1.22 0 0 1 .754-.28c.374 0 .742.2 1.01.547.231.3.335.687.277 1.04a.949.949 0 0 1-.424.663c-1.515 1.015-3.16 1.946-4.75 2.845-.603.341-1.206.682-1.805 1.029-.165.095-.347.164-.601.267-.196.08-.424.173-.7.293l-2.507 1.084 2.258 1.535c.19.129.361.237.517.335.18.113.352.221.419.286 4.705 4.542 6.075 11.288 3.49 17.181-2.508 5.718-7.962 9.272-14.234 9.272-.25 0-.498-.006-.749-.018l-.27-.002a5.194 5.194 0 0 0-1.779-.333c-1.922 0-3.249 1.216-4.189 2.277-1.408 1.589-2.992 3.112-4.525 4.582l-1.289 1.244c-.327.317-.8.696-1.2.696z"/>
        <path d="M63.293 47.66c-1.123-.008-2.162-.439-2.925-1.214a3.833 3.833 0 0 1-1.113-2.757c.024-2.209 1.913-4.007 4.209-4.007 2.244.005 4.01 1.71 4.03 3.882a3.972 3.972 0 0 1-1.176 2.854 4.193 4.193 0 0 1-2.996 1.242h-.029zM35.056 47.657c-2.233-.017-3.997-1.73-4.016-3.905a3.978 3.978 0 0 1 1.174-2.857 4.255 4.255 0 0 1 3.033-1.256c1.127 0 2.164.422 2.928 1.186a3.848 3.848 0 0 1 1.13 2.755c-.01 2.248-1.902 4.077-4.217 4.077h-.032z"/>
    </g>
</svg>
