<svg xmlns="http://www.w3.org/2000/svg" width="129" height="129" viewBox="0 0 129 129">
    <g fill="#EB8F12" fill-rule="evenodd">
        <path d="M3.604 92.687c-.107-3.104 2.855-6.304 6.035-6.48 1.146-.063 2.25-.082 4.03-.082h.59c.735 0 1.062 0 1.473-.002 1.234-.006.945-.294.954.96.007 1.354.007 2.439.002 4.882-.007 3.224-.005 4.658.015 6.454.033 2.96.964 3.887 3.932 3.933 1.622.027 2.917.029 5.827.018a624.68 624.68 0 0 1 2.46-.006h4.07c4.747-.003 6.857-.002 9.494.002.53 0 .736.032.702.01a.521.521 0 0 1-.175-.177c.02.04.056.151.098.343 1.394 6.352 5.458 10.587 11.775 12.523 6.634 2.033 13.392 1.994 19.993-.122 5.93-1.901 9.826-5.893 11.207-11.776.27-1.15-.159-.796 1.173-.799 2.633-.004 4.74-.005 9.48-.003 5.928.002 8.563 0 11.858-.009 3.092-.008 4.06-.976 4.08-4.068.01-1.69.01-3.04.007-6.074l-.002-1.57c0-1.51 0-2.677.006-3.81.005-.894-.165-.723.692-.71.467.008.925.01 1.588.008l.36-.001c2.494-.006 3.59.024 4.937.18 2.802.327 5.493 3.34 5.474 5.924-.056 7.786-.054 15.153-.012 27.226.01 3.035-2.98 6.016-6.032 6.015-51.033-.025-78.78-.024-109.77.017-3.395.006-6.596-3.367-6.294-6.122l.01-.166-.036-26.468-.001-.05zm-3 .054l.036 26.468.01-.165c-.502 4.573 4.134 9.459 9.28 9.45 30.986-.042 58.732-.043 109.764-.018 4.71.002 9.048-4.324 9.033-9.025-.042-12.063-.044-19.422.012-27.194.03-4.121-3.81-8.421-8.128-8.927-1.504-.174-2.68-.205-5.29-.199h-.359c-.648.002-1.092 0-1.537-.006-2.54-.04-3.722 1.146-3.737 3.694a701.719 701.719 0 0 0-.004 5.399c.003 3.027.003 4.372-.008 6.052-.009 1.447.356 1.083-1.087 1.086-3.29.01-5.924.01-11.85.009-4.742-.002-6.85-.001-9.485.003-2.745.005-3.504.63-4.088 3.113-1.134 4.825-4.248 8.016-9.203 9.605-6.017 1.929-12.149 1.964-18.197.11-5.304-1.625-8.568-5.026-9.725-10.297-.418-1.902-1.4-2.53-3.55-2.533a4096.1 4096.1 0 0 0-9.5-.003l-4.07.001c-.686 0-1.235.002-2.47.006-2.89.01-4.171.009-5.768-.017-1.35-.021-.965.362-.98-.968a432.49 432.49 0 0 1-.015-6.413c.005-2.451.005-3.542-.003-4.907-.019-2.906-1.074-3.956-3.968-3.942-.403.002-.727.002-1.457.002h-.591c-1.831 0-2.981.02-4.196.087-4.801.265-9.03 4.834-8.867 9.578l-.001-.05zM120.084 44.102a601.996 601.996 0 0 1 .006-2.952c.001-1.18-.002-2.09-.012-2.975-.038-3.094-.997-4.06-4.084-4.063-19.266-.007-34.677-.007-69.354-.006H13.135c-3.003.003-4.087 1.085-4.09 4.085v5.912h3v-1.971-.985-2.953c.002-1.345-.257-1.087 1.09-1.088H46.64c34.676-.001 50.088 0 69.352.006 1.432.001 1.068-.365 1.086 1.1.01.869.013 1.765.012 2.933l-.003 1.18-.003 1.777h3z"/>
        <path d="M9.825 74.514V67.68c.002-10.25.001-14.806-.004-20.5-.001-.936.103-1.15.586-1.316l.05-.017c.258-.091.266-.093.28-.096a.601.601 0 0 1-.33-.046c.967.45 1.706.528 3.258.517l.085-.001.247-.001a1616579.135 1616579.135 0 0 1 50.937-.003c19.809 0 35.655-.002 50.936-.005h.063c.222 0 .324 0 .455-.003.567-.01 1.018-.058 1.474-.181 1.27-.34 1.44-.208 1.44 1.153a38701.435 38701.435 0 0 1 .001 27.332h3V67.68c.001-10.25.001-14.805-.002-20.5 0-3.326-2.033-4.9-5.219-4.05-.179.05-.408.073-.75.08-.106.002-.195.002-.398.002h-.064a431850.999 431850.999 0 0 1-76.405.007 1616516.826 1616516.826 0 0 0-25.736.002h-.086c-1.115.009-1.542-.036-1.972-.236a2.395 2.395 0 0 0-1.479-.184c-.15.027-.289.065-.44.115-.081.026-.167.056-.29.1l-.033.012c-1.919.66-2.611 2.076-2.608 4.155v-.001c.005 5.694.006 10.25.005 20.498v6.833h3zM16.485 28.22c0-.672-.001-1.21-.006-2.418-.009-2.726-.008-3.934.014-5.441.022-1.427-.19-1.209 1.219-1.22 1.638-.015 3.06-.017 5.843-.014h.247c2.81.004 4.06.003 5.623-.009.49-.003.727.09.99.377.396.432.718.755 1.44 1.46l.003.002c.708.691 1.015 1 1.37 1.389.953 1.047 2.107 1.481 3.587 1.481 21.6-.019 42.835-.021 74.615-.014 1.57 0 1.2-.37 1.212 1.216.004.617.005 1.111.003 2.228l-.001.963h3v-.958a228.65 228.65 0 0 0-.002-2.255c-.024-3.229-.987-4.194-4.212-4.194-31.78-.007-53.017-.005-74.616.014-.687 0-1.03-.129-1.368-.501-.408-.448-.743-.784-1.493-1.516l-.003-.003c-.683-.666-.98-.964-1.324-1.338-.86-.943-1.917-1.36-3.222-1.35-1.553.01-2.797.012-5.598.008h-.248a565.581 565.581 0 0 0-5.872.013c-3.064.027-4.146 1.145-4.193 4.176a285.01 285.01 0 0 0-.014 5.496c.005 1.205.006 1.74.006 2.408h3zM108.737 12.229c.042-4.154-.781-4.97-4.955-4.968-4.852.003-8.733.004-17.466.004a16239.8 16239.8 0 0 0-33.595.024c-.677 0-.93-.122-1.202-.551-.394-.623-.73-1.136-1.429-2.188l-.049-.074a122.646 122.646 0 0 1-1.349-2.061C47.907 1.183 46.79.582 45.308.597c-2.33.027-4.196.03-8.398.024-1.836-.003-2.652-.004-3.673-.003-2.834.003-3.952 1.12-3.966 3.954 0 .207 0 .37.002.732.004.613.004.883-.003 1.213-.02.912.156.736-.729.742-1.515.011-2.729.013-5.461.01a996.262 996.262 0 0 0-3.289 0c-.562 0-1.032.034-1.512.125-1.162.213-2.003.883-2.375 2.007l-.088.263.013.276.118 2.625 2.997-.134-.118-2.625-1.499.067 1.424.472c.011-.034-.06.023.078-.002.279-.053.572-.074.965-.074.913-.002 1.642-.002 3.283 0 2.74.003 3.96.001 5.486-.01 2.52-.017 3.654-1.155 3.706-3.679.008-.366.008-.653.004-1.293l-.002-.703c.006-1.184-.213-.964.969-.966 1.017 0 1.832 0 3.665.003 4.216.006 6.09.003 8.436-.024.446-.005.595.075.821.43a124.946 124.946 0 0 0 1.429 2.182 115.617 115.617 0 0 1 1.393 2.133c.855 1.352 2.087 1.95 3.743 1.947 9.33-.019 16.794-.023 33.589-.024 8.734 0 12.615-.001 17.467-.004 2.517-.001 1.979-.535 1.954 1.937l3 .03z"/>
        <path d="M30.51 65.052c.323 3.42 1.876 6.172 4.63 7.985 4.178 2.753 10.064 1.688 13.131-2.412 4.091-5.458 1.67-13.216-4.994-15.23-6.11-1.845-11.92 2.145-12.641 8.61a1.758 1.758 0 0 1-.03.154l-.022.1a8.717 8.717 0 0 0-.05.235l-.03.146v.271l.007.14zm2.988-.281l-1.494.14h1.5v-.122h-1.5l1.471.295c.008-.04.014-.07.035-.161l.027-.122c.037-.169.063-.307.08-.459.517-4.633 4.503-7.37 8.793-6.075 4.647 1.405 6.316 6.75 3.46 10.56-2.122 2.836-6.234 3.58-9.08 1.705-1.968-1.295-3.053-3.219-3.292-5.761zM105.386 72.5H69.498v3h35.888zM72.525 54.608c-2.16.64-2.768 1.415-2.796 3.635-.027 2.026-.03 3.282.002 4.611.059 2.5 1.335 3.788 3.832 3.794 9.43.019 19.154.018 29.36 0 2.364-.003 3.535-1.183 3.586-3.55a95.865 95.865 0 0 0 0-4.628c-.08-2.972-.997-3.901-3.953-3.912-4.147-.013-8.433-.018-13.88-.017l-6.308.002-7.567.003h-2.068l-.208.062zm.852 2.876l-.426-1.438v1.5h1.85c2.103 0 3.784 0 7.569-.003l6.306-.002c5.444-.001 9.727.004 13.87.017 1.31.005.927-.382.964.99.037 1.41.035 2.882 0 4.484-.017.757.125.615-.592.616-10.203.018-19.924.019-29.348 0-.85-.002-.819.03-.84-.864-.03-1.283-.028-2.51-.002-4.502.012-.885-.27-.525.649-.798zM61.621 91.602c-5.263-12.026-7.886-15.416-11.973-15.213-.196.01-.393.026-.593.05a13.23 13.23 0 0 0-1.522.281 36.35 36.35 0 0 0-.73.182l-.726.189c-1.62.414-2.726.6-4.102.617-1.602.021-2.721-.169-4.174-.606l-.816-.25c-.332-.102-.593-.176-.854-.24-.828-.204-1.572-.285-2.383-.227-4.663.337-8.604 4.757-11.456 15.517l-.5 1.889 1.954-.005 36.504-.083 2.288-.005-.917-2.096zm-2.748 1.203l1.37-2.102-36.504.083 1.453 1.884c2.558-9.65 5.603-13.064 8.77-13.293.471-.034.908.014 1.45.148.201.05.415.11.701.197.09.027.648.2.823.252 1.725.52 3.138.76 5.077.734 1.657-.021 2.978-.243 4.808-.711 2.025-.519 1.976-.507 2.585-.579.135-.016.265-.027.391-.033 2.244-.112 4.339 2.595 9.076 13.42zM87.38 90.497l-3.582.001c-5.67.003-8.188.001-11.334-.012-.35-.002-.607.018-1.157.074l-.13.014c-.579.058-.865.061-1.124.007l-.62 2.935c.645.136 1.177.13 2.045.043l.136-.014c.445-.046.63-.06.838-.06 3.152.014 5.673.016 11.347.013h3.582v-3zM87.16 81.504c-.152.01-.27.02-.53.04l-.288.024a9.44 9.44 0 0 1-.693.033l-1.182.002-4.734.006c-2.206 0-4.102-.003-5.912-.012-.58-.003-1.18-.02-1.977-.055l-.748-.034c-.644-.03-.933-.043-1.295-.057l-.113 2.998c.35.013.633.026 1.268.055l.757.035c.833.036 1.467.055 2.093.058 1.816.01 3.717.013 5.928.012 1.316 0 2.37-.002 4.738-.006l1.184-.002c.283-.001.559-.015.913-.042l.305-.024a27 27 0 0 1 .48-.037l-.194-2.994z"/>
    </g>
</svg>
