<?xml version="1.0" encoding="UTF-8"?>
<svg width="173px" height="38px" viewBox="0 0 173 38" version="1.1" xmlns="http://www.w3.org/2000/svg" xmlns:xlink="http://www.w3.org/1999/xlink">
    <!-- Generator: sketchtool 3.7 (28169) - http://www.bohemiancoding.com/sketch -->
    <title>905D1733-F3FE-42E2-B304-2CE0BD543DFC</title>
    <desc>Created with sketchtool.</desc>
    <defs></defs>
    <g id="PC" stroke="none" stroke-width="1" fill="none" fill-rule="evenodd">
        <g id="page_main_1440-copy-11" transform="translate(-1043.000000, -8954.000000)">
            <g id="Group-24" transform="translate(0.000000, 6921.000000)">
                <g id="logo" transform="translate(1043.000000, 2033.000000)">
                    <g id="Layer_1">
                        <g id="Group">
                            <path d="M9.88571429,10.1333333 C8.53766234,11.8470588 8.46277056,15.0509804 8.91212121,17.0627451 C9.28658009,18.7019608 10.1103896,19.8941176 11.6082251,20.7137255 C14.0047619,21.9803922 17.5995671,22.2784314 20.295671,22.3529412 C22.6922078,22.427451 25.0887446,22.427451 27.4852814,22.3529412 C29.8818182,22.2784314 32.6528139,22.1294118 34.9744589,21.4588235 C38.7939394,20.4156863 39.9922078,18.4039216 39.9922078,14.6784314 C39.9922078,13.1137255 39.8424242,11.4745098 38.8688312,10.1333333 C37.3709957,8.12156863 34.3004329,7.5254902 31.9787879,7.30196078 C26.961039,6.85490196 21.7935065,6.85490196 16.7757576,7.30196078 C14.3792208,7.6 11.4584416,8.19607843 9.88571429,10.1333333 L9.88571429,10.1333333 Z M15.0532468,0.670588235 C17.7493506,0.37254902 20.5203463,0.298039216 23.2164502,0.298039216 C25.8376623,0.298039216 28.5337662,0.298039216 31.1549784,0.447058824 C38.8688312,0.968627451 47.0320346,3.12941176 47.8558442,11.9215686 C48.7545455,22.6509804 44.7103896,27.4941176 33.6264069,28.7607843 C30.5558442,29.1333333 27.4103896,29.1333333 24.3398268,29.1333333 C21.2692641,29.1333333 18.1238095,29.0588235 15.0532468,28.7607843 C9.51125541,28.0901961 3.59480519,26.3019608 1.4978355,20.7137255 C0.374458874,17.5843137 0.374458874,11.8470588 1.4978355,8.71764706 C3.51991342,3.12941176 9.58614719,1.26666667 15.0532468,0.670588235 L15.0532468,0.670588235 Z M51.225974,29.2078431 L51.225974,0.298039216 L60.2878788,0.298039216 L60.2878788,27.4196078 C57.5168831,28.0901961 54.7458874,28.6862745 52.0497835,29.2078431 L51.225974,29.2078431 L51.225974,29.2078431 Z M138.699567,19.2235294 L146.188745,29.1333333 L135.703896,29.1333333 L129.787446,21.3098039 C132.708225,20.5647059 135.703896,19.8196078 138.699567,19.2235294 L138.699567,19.2235294 Z M73.3190476,24.2156863 L63.882684,19 C60.6623377,17.2117647 60.6623377,12.145098 63.882684,10.3568627 L82.0813853,0.298039216 L98.5575758,0.298039216 L72.4952381,14.6784314 L84.4030303,21.2352941 L73.3190476,24.2156863 L73.3190476,24.2156863 Z M119.82684,8.12156863 C119.00303,7.15294118 117.430303,7.30196078 116.531602,8.12156863 L111.438961,14.9019608 C109.192208,15.2745098 107.020346,15.6470588 105.07316,16.0941176 L99.0069264,17.5098039 L109.641558,3.35294118 C111.513853,0.894117647 115.18355,0.298039216 118.179221,0.298039216 C121.1,0.298039216 124.844589,0.894117647 126.716883,3.35294118 L133.681818,12.5921569 C130.461472,12.7411765 127.166234,13.0392157 123.796104,13.3372549 L119.82684,8.12156863 L119.82684,8.12156863 Z" id="Shape" fill="#000000"></path>
                            <path d="M105.222944,17.1372549 C70.0238095,24.9607843 41.6398268,37.5529412 1.57272727,32.2627451 C42.6883117,38.8196078 70.4731602,31.6666667 95.9363636,24.5882353 C119.901732,17.8823529 141.77013,11.1764706 170.753247,15.8705882 C163.638528,14.0078431 154.726407,13.3372549 145.664502,13.3372549 C129.412987,13.2627451 112.712121,15.4980392 105.222944,17.1372549" id="Shape" fill="#0295A4"></path>
                            <path d="M116.606494,19.8196078 C86.5748918,27.6431373 62.3848485,39.7882353 28.2341991,35.7647059 C63.1337662,40.9058824 86.7995671,33.827451 108.44329,26.8235294 C128.963636,20.1921569 147.68658,13.4862745 172.475758,17.2117647 C167.308225,15.8705882 161.017316,15.4235294 154.42684,15.4235294 C139.523377,15.4235294 123.421645,18.0313725 116.606494,19.8196078" id="Shape" fill="#0295A4"></path>
                        </g>
                    </g>
                </g>
            </g>
        </g>
    </g>
</svg>