<?xml version="1.0" encoding="UTF-8"?>
<svg width="174px" height="42px" viewBox="0 0 174 42" version="1.1" xmlns="http://www.w3.org/2000/svg" xmlns:xlink="http://www.w3.org/1999/xlink">
    <!-- Generator: sketchtool 3.7 (28169) - http://www.bohemiancoding.com/sketch -->
    <title>8F55293F-8B4F-4A3A-8756-A0034C84EFBD</title>
    <desc>Created with sketchtool.</desc>
    <defs></defs>
    <g id="PC" stroke="none" stroke-width="1" fill="none" fill-rule="evenodd">
        <g id="page_main_1440-copy-11" transform="translate(-1104.000000, -9424.000000)" fill="#F26E21">
            <g id="Group-24" transform="translate(0.000000, 6921.000000)">
                <g id="logo_02" transform="translate(1104.000000, 2503.000000)">
                    <g id="Group">
                        <path d="M21.8916538,29.550755 C19.3633558,29.550755 17.3537115,28.7652715 15.8724808,27.1984768 C14.3909712,25.6339073 13.6458942,23.523894 13.6458942,20.891245 C13.6458942,18.3131126 14.3812115,16.1878013 15.8496154,14.5114172 C17.3155096,12.8392053 19.2674327,11.9983709 21.6998077,11.9983709 C22.6420288,11.9983709 23.5527404,12.1199205 24.4380769,12.3666358 C25.3303846,12.6186358 26.2126538,12.9554702 27.0862788,13.3932715 L27.0862788,10.9617219 C25.3694231,10.2468874 23.5636154,9.88390728 21.6596538,9.88390728 C18.5399231,9.88390728 16.0411827,10.931404 14.1536731,13.0358543 C12.2658846,15.1308477 11.3225481,17.8241325 11.3225481,21.1226623 C11.3225481,24.3246755 12.2812212,26.878053 14.1971731,28.7955894 C16.1206538,30.7036689 18.6205096,31.6596556 21.7053846,31.6596556 C22.6420288,31.6596556 23.5449327,31.5695364 24.4207885,31.3837351 C25.2944135,31.1979338 26.3082981,30.9295232 27.4577019,30.5885166 L27.4577019,28.2968742 C26.4652885,28.6695894 25.4915577,28.9663709 24.5568654,29.2030728 C23.6179904,29.4303179 22.7301442,29.550755 21.8916538,29.550755 L21.8916538,29.550755 Z" id="Shape"></path>
                        <path d="M57.0240385,28.6545695 C59.0707692,26.6508079 60.0902308,24.0323444 60.0902308,20.7958411 C60.0902308,17.4667152 59.083875,14.8179338 57.0697692,12.8447682 C55.060125,10.8704901 52.4905577,9.88390728 49.3711058,9.88390728 C46.3754615,9.88390728 43.9246827,10.7848212 42.0240673,12.5927682 C40.1189904,14.390702 39.0459904,16.6920795 38.7997692,19.4907815 L34.4408462,19.4907815 L34.4408462,10.2969536 L32.1336731,10.2969536 L32.1336731,31.248 L34.4408462,31.248 L34.4408462,21.5443311 L38.7997692,21.5443311 C38.8923462,24.3246755 39.8236923,26.6911391 41.8835288,28.6793245 C43.9453173,30.6689007 46.4234231,31.6596556 49.3284423,31.6596556 C52.4152692,31.6596556 54.9795385,30.6633377 57.0240385,28.6545695 L57.0240385,28.6545695 Z M43.4302885,27.0332583 C41.8704231,25.2764901 41.0938365,23.1817748 41.0938365,20.7599603 C41.0938365,18.2978146 41.8509038,16.2128344 43.3647596,14.5016821 C44.8735962,12.794702 46.8679038,11.9385695 49.3340192,11.9385695 C51.8653846,11.9385695 53.9271731,12.8044371 55.5143654,14.5461854 C57.0142788,16.1933642 57.7635385,18.2521987 57.7635385,20.709894 C57.7635385,23.2318411 56.9783077,25.3515894 55.3989231,27.0791523 C53.8237212,28.8056026 51.8140769,29.6670199 49.3819808,29.6670199 C46.9788846,29.6670199 44.9943365,28.7903046 43.4302885,27.0332583 L43.4302885,27.0332583 Z" id="Shape"></path>
                        <path d="M73.163375,31.6596556 C76.2805962,31.6596556 78.8392885,30.6035364 80.833875,28.4935232 C82.8304135,26.3737748 83.8292404,23.7803444 83.8292404,20.7046093 C83.8292404,17.4363974 82.8401731,14.8179338 80.8586923,12.8447682 C78.8752596,10.8704901 76.3438942,9.88390728 73.2590192,9.88390728 C71.1339327,9.88390728 69.0927788,10.4271258 67.1288654,11.5157881 L67.1288654,10.2969536 L64.8523654,10.2969536 L64.8523654,41.9816424 L67.1288654,41.9816424 L67.1288654,30.1245695 C68.2802212,30.6483179 69.31725,31.0416159 70.2385577,31.288053 C71.162375,31.5347682 72.1361058,31.6596556 73.163375,31.6596556 L73.163375,31.6596556 Z M67.1288654,13.6563974 C68.0624423,13.0967682 68.9608846,12.684 69.8194519,12.4208742 C70.6796923,12.1602517 71.5881731,12.0245166 72.5554904,12.0245166 C75.1164135,12.0245166 77.2217019,12.8545033 78.8752596,14.4961192 C80.5288173,16.143298 81.3533654,18.2827947 81.3533654,20.9260132 C81.3533654,23.4435099 80.5854231,25.5123576 79.0592981,27.1289404 C77.5301058,28.7402384 75.4605096,29.550755 72.8399135,29.550755 C70.9326058,29.550755 69.0317115,28.9922384 67.1288654,27.8743709 L67.1288654,13.6563974 L67.1288654,13.6563974 Z" id="Shape"></path>
                        <polygon id="Shape" points="103.461683 31.248 105.699981 31.248 105.699981 10.3022384 88.4901538 10.3022384 88.4901538 31.248 90.7317981 31.248 90.7317981 12.3513377 103.461683 12.3513377"></polygon>
                        <path d="M119.644519,31.6596556 C122.76425,31.6596556 125.322663,30.6035364 127.320317,28.4935232 C129.316019,26.3737748 130.313731,23.7803444 130.313731,20.7046093 C130.313731,17.4363974 129.321317,14.8179338 127.342346,12.8447682 C125.366442,10.8704901 122.827269,9.88390728 119.743788,9.88390728 C117.620654,9.88390728 115.581731,10.4271258 113.613356,11.5157881 L113.613356,10.2969536 L111.334625,10.2969536 L111.334625,41.9816424 L113.613356,41.9816424 L113.613356,30.1245695 C114.769173,30.6483179 115.803971,31.0416159 116.722212,31.288053 C117.643519,31.5347682 118.617529,31.6596556 119.644519,31.6596556 L119.644519,31.6596556 Z M113.613356,13.6563974 C114.546933,13.0967682 115.445654,12.684 116.302827,12.4208742 C117.164462,12.1602517 118.072663,12.0245166 119.038865,12.0245166 C121.603135,12.0245166 123.705356,12.8545033 125.356683,14.4961192 C127.008846,16.143298 127.837856,18.2827947 127.837856,20.9260132 C127.837856,23.4435099 127.074375,25.5123576 125.544904,27.1289404 C124.015712,28.7402384 121.941654,29.550755 119.322173,29.550755 C117.417096,29.550755 115.516202,28.9922384 113.613356,27.8743709 L113.613356,13.6563974 L113.613356,13.6563974 Z" id="Shape"></path>
                        <polygon id="Shape" points="150.728337 13.9376026 150.728337 31.248 153.029933 31.248 153.029933 10.3022384 151.177 10.3022384 137.27401 27.7939868 137.27401 10.3022384 134.99974 10.3022384 134.99974 31.248 136.817538 31.248"></polygon>
                        <path d="M172.281192,12.7782914 C171.428202,11.8982384 170.298596,11.2529404 168.889308,10.860755 C168.889308,10.860755 168.737894,10.8204238 168.612413,10.7803709 C168.733433,10.7400397 168.884846,10.6846887 168.884846,10.6846887 C169.896779,10.3272715 170.767058,9.7634702 171.484808,9.0135894 C172.317163,8.10099338 172.748538,7.06990728 172.748538,5.94202649 C172.748538,4.01781457 172.024096,2.49802649 170.586365,1.42549669 C169.308692,0.47813245 167.696404,0 165.798019,0 C164.680404,0 163.51176,0.176066225 162.325548,0.539046358 C161.198173,0.886728477 160.16226,1.3245298 159.249317,1.83298013 L158.931433,1.98929801 L158.905221,1.99931126 L158.905221,4.0386755 L159.259356,3.85704636 C160.385615,3.27794702 161.277644,2.85544371 161.919269,2.60872848 C163.024615,2.21098013 164.145577,2.01015894 165.255385,2.01015894 C168.700808,2.01015894 170.446942,3.37919205 170.446942,6.08221192 C170.446942,7.24597351 169.896779,8.23784106 168.814019,9.05280795 C167.736837,9.85887417 166.456933,10.2674702 165.010558,10.2674702 L162.388567,10.2674702 L162.388567,12.2806887 L165.960308,12.2806887 C167.633385,12.2806887 169.007817,12.684 170.032856,13.4889536 C171.067654,14.3050331 171.593837,15.4176159 171.593837,16.8027815 C171.593837,18.256649 170.939106,19.3745166 169.649442,20.1154967 C168.57226,20.7543974 167.161577,21.0770464 165.452529,21.0770464 C164.082279,21.0770464 162.898298,20.9413113 161.926798,20.6795762 C161.033654,20.4328609 159.924683,19.9797616 158.632788,19.3550464 L158.174365,19.1333642 L158.174365,21.3237616 L158.587058,21.5204106 C160.694856,22.5623444 162.934269,23.0860927 165.245625,23.0860927 C168.011221,23.0860927 170.169212,22.5167285 171.661317,21.3891258 C173.142827,20.2665298 173.895433,18.7258808 173.895433,16.8027815 C173.895433,15.2359868 173.351962,13.8822517 172.281192,12.7782914 L172.281192,12.7782914 Z" id="Shape"></path>
                        <polygon id="Shape" points="0 10.2969536 1.09781731 10.2969536 1.09781731 13.0859205 1.80274038 13.0859205 1.80274038 10.2969536 2.85036538 10.2969536 2.85036538 9.65249007 0 9.65249007"></polygon>
                        <path d="M5.45172115,12.1505166 L4.41469231,9.65249007 L3.60966346,9.65249007 L3.60966346,13.0859205 L4.31124038,13.0859205 L4.31124038,10.9355762 C4.56945192,11.5452715 5.16952885,13.0859205 5.16952885,13.0859205 L5.70965385,13.0859205 C5.70965385,13.0859205 6.35016346,11.4757351 6.56710577,10.9814702 L6.56710577,13.0859205 L7.27927885,13.0859205 L7.27927885,9.65249007 L6.52890385,9.65249007 L5.45172115,12.1505166 L5.45172115,12.1505166 Z" id="Shape"></path>
                    </g>
                </g>
            </g>
        </g>
    </g>
</svg>