<svg xmlns="http://www.w3.org/2000/svg" width="48" height="48" viewBox="0 0 48 48">
    <g fill="none" fill-rule="evenodd" stroke="#FFF" stroke-width="2">
        <path d="M1 17.219c.051-.427.072-.861.16-1.28.615-2.945 1.866-5.533 4.257-7.463A6.63 6.63 0 0 1 8.88 7.02c.706-.08 1.389.095 2.067.271 1.116.291 2.086.85 2.96 1.591 1.364 1.157 2.612 2.417 3.538 3.962.474.793.81 1.638.92 2.562.134 1.13-.11 2.188-.68 3.158a9.831 9.831 0 0 1-3.879 3.749c-.279.15-.585.25-.882.367-.446.176-.499.259-.28.678.25.48.516.959.822 1.405 1.372 1.994 2.819 3.935 4.577 5.61 1.746 1.664 3.602 3.199 5.677 4.448.346.209.718.375 1.073.57.201.11.308.048.394-.152.205-.474.387-.964.644-1.41.85-1.471 2.012-2.658 3.48-3.51 1.73-1.002 3.535-1.064 5.287-.102 2.59 1.421 4.575 3.454 5.822 6.157.39.845.63 1.754.573 2.685a5.925 5.925 0 0 1-.994 2.988 8.414 8.414 0 0 1-2.387 2.382c-1.627 1.062-3.343 1.939-5.276 2.305-.482.092-.975.127-1.462.19-.093.012-.184.031-.277.047h-2.073c-.058-.013-.116-.034-.174-.038-1.757-.098-3.441-.532-5.083-1.133-3.45-1.262-6.517-3.18-9.336-5.512-1.854-1.533-3.51-3.273-5.16-5.018-2.69-2.845-4.798-6.072-6.288-9.695-.638-1.551-1.14-3.145-1.35-4.818-.056-.435-.089-.873-.132-1.31V17.22z"/>
        <g stroke-linecap="round">
            <path d="M36.848 21.548c0-5.523-4.52-10-10.096-10M41.273 21.12c0-8.395-6.87-15.2-15.346-15.2M46.096 21.096c0-11.046-9.04-20-20.192-20"/>
        </g>
    </g>
</svg>
