<?xml version="1.0" encoding="UTF-8"?>
<svg width="59px" height="59px" viewBox="0 0 59 59" version="1.1" xmlns="http://www.w3.org/2000/svg" xmlns:xlink="http://www.w3.org/1999/xlink">
    <!-- Generator: Sketch 3.7 (28169) - http://www.bohemiancoding.com/sketch -->
    <title>smile</title>
    <desc>Created with Sketch.</desc>
    <defs></defs>
    <g id="PC" stroke="none" stroke-width="1" fill="none" fill-rule="evenodd">
        <g id="page_main_1440-copy-13" transform="translate(-232.000000, -173.000000)" fill="#EB8F12">
            <g id="Group-26" transform="translate(97.000000, 167.000000)">
                <g id="smile" transform="translate(135.000000, 6.000000)">
                    <path d="M37.5667149,23.5923728 C35.7266272,23.5368904 34.3000044,21.9891711 34.342943,20.0945658 C34.3858816,18.1739079 35.8535132,16.7714079 37.75825,16.83075 C39.595443,16.8881623 41.1118026,18.4831623 41.0587325,20.3025044 C41.0066272,22.1025482 39.3672412,23.6464079 37.5667149,23.5923728" id="Fill-1"></path>
                    <path d="M21.2107763,16.8535219 C23.0605132,16.836636 24.6294605,18.3447939 24.6545482,20.164136 C24.6786711,21.9583904 23.1068289,23.55725 21.2884518,23.5866798 C19.4502939,23.6161096 17.9566096,22.1238728 17.930557,20.2311974 C17.9040219,18.282557 19.2741974,16.8708904 21.2107763,16.8535219" id="Fill-3"></path>
                    <path d="M54.9902544,29.4953684 C54.9902544,43.575831 43.5756089,54.9900614 29.4950789,54.9900614 C15.4142385,54.9900614 3.99990351,43.5760031 3.99990351,29.4953684 C3.99990351,15.4146309 15.4143414,4.00019298 29.4950789,4.00019298 C43.5755061,4.00019298 54.9902544,15.414803 54.9902544,29.4953684 L54.9902544,29.4953684 Z M58.9902544,29.4953684 C58.9902544,13.2056531 45.7846342,0.000192982456 29.4950789,0.000192982456 C13.2052024,0.000192982456 -9.64912251e-05,13.2054919 -9.64912251e-05,29.4953684 C-9.64912251e-05,45.7851638 13.2051213,58.9900614 29.4950789,58.9900614 C45.7847154,58.9900614 58.9902544,45.7850026 58.9902544,29.4953684 L58.9902544,29.4953684 Z" id="Stroke-5"></path>
                    <path d="M41.111478,33.7858909 C40.5346642,34.7780264 39.8290917,35.6960773 39.0027485,36.5220385 C33.7961153,41.7290588 25.355536,41.7290588 20.149722,36.5224706 C19.2535811,35.6270937 18.500371,34.6247913 17.9005582,33.5390789 C17.3664202,32.5722437 16.149641,32.2214733 15.1828057,32.7556113 C14.2159705,33.2897492 13.8652,34.5065285 14.399338,35.4733637 C15.1801517,36.8867029 16.1599968,38.1905903 17.3217932,39.3513958 C24.0890263,46.1196356 35.0625088,46.1196356 41.8309012,39.35074 C42.9022767,38.2798599 43.8194616,37.0864709 44.5695206,35.796349 C45.1246932,34.8414369 44.8006404,33.6172713 43.8457283,33.0620987 C42.8908162,32.506926 41.6666506,32.8309789 41.111478,33.7858909 L41.111478,33.7858909 Z" id="Stroke-7"></path>
                </g>
            </g>
        </g>
    </g>
</svg>