<svg xmlns="http://www.w3.org/2000/svg" width="20" height="21" viewBox="0 0 20 21">
    <path fill="#EB8F12" fill-rule="evenodd" d="M16.365 5.243a1.157 1.157 0 1 1-2.314 0 1.157 1.157 0 0 1 2.314 0m-6.305 8.359a3.214 3.214 0 1 1 0-6.429 3.214 3.214 0 0 1 0 6.429m0-8.163a4.95 4.95 0 1 0 0 9.9 4.951 4.951 0 1 0 0-9.9m0-4.69c-2.619 0-2.947.011-3.976.058-1.026.047-1.727.21-2.34.448a4.725 4.725 0 0 0-1.708 1.112A4.717 4.717 0 0 0 .923 4.074c-.238.613-.401 1.314-.448 2.34C.428 7.442.417 7.771.417 10.388c0 2.618.01 2.947.058 3.975.047 1.026.21 1.727.448 2.34a4.73 4.73 0 0 0 1.113 1.707 4.723 4.723 0 0 0 1.707 1.112c.614.238 1.315.401 2.341.448 1.029.047 1.357.059 3.976.059 2.62 0 2.948-.012 3.976-.059 1.027-.047 1.728-.21 2.341-.448a4.723 4.723 0 0 0 1.708-1.112 4.739 4.739 0 0 0 1.113-1.707c.238-.613.401-1.314.448-2.34.047-1.028.058-1.357.058-3.975 0-2.617-.011-2.946-.058-3.974-.047-1.026-.21-1.727-.448-2.34a4.726 4.726 0 0 0-1.113-1.707 4.725 4.725 0 0 0-1.708-1.112c-.613-.238-1.314-.401-2.34-.448C13.006.76 12.68.75 10.06.75m0 1.737c2.576 0 2.88.01 3.897.056.94.043 1.45.2 1.79.332.451.175.772.384 1.11.72.337.338.546.66.721 1.109.132.34.289.85.332 1.79.046 1.017.057 1.322.057 3.895 0 2.575-.01 2.88-.057 3.896-.043.94-.2 1.45-.332 1.79-.175.45-.384.771-.722 1.108a2.975 2.975 0 0 1-1.108.721c-.34.132-.85.29-1.79.332-1.018.047-1.322.056-3.898.056-2.575 0-2.88-.01-3.897-.056-.94-.043-1.45-.2-1.79-.332a2.975 2.975 0 0 1-1.109-.72 2.974 2.974 0 0 1-.72-1.11c-.133-.339-.29-.85-.334-1.789-.045-1.017-.056-1.321-.056-3.896 0-2.573.01-2.878.056-3.895.044-.94.2-1.45.333-1.79.175-.45.383-.77.721-1.108a2.983 2.983 0 0 1 1.109-.721c.34-.132.85-.289 1.79-.332 1.017-.047 1.322-.056 3.897-.056"/>
</svg>
