<svg xmlns="http://www.w3.org/2000/svg" width="14" height="17" viewBox="0 0 14 17">
    <path fill="#EB8F12" fill-rule="evenodd" d="M4.62 13.01h2.336c.79 0 1.345-.15 1.666-.456.325-.306.486-.717.486-1.234 0-.48-.157-.864-.478-1.156-.322-.29-.88-.438-1.684-.438H4.62v3.285zm0-6.368h1.99c.715 0 1.212-.136 1.495-.404.279-.272.417-.66.417-1.166 0-.472-.138-.842-.417-1.106-.283-.269-.77-.4-1.463-.4H4.62v3.076zM0 .28h8.574c1.428 0 2.526.39 3.288 1.163.766.774 1.15 1.732 1.15 2.873 0 .958-.273 1.781-.82 2.469-.364.456-.896.819-1.597 1.083 1.064.28 1.848.762 2.35 1.442.5.684.753 1.54.753 2.571 0 .842-.18 1.597-.535 2.269a4.17 4.17 0 0 1-1.466 1.593c-.383.242-.963.419-1.74.528-1.032.148-1.714.224-2.052.224H0V.28z"/>
</svg>
