<svg xmlns="http://www.w3.org/2000/svg" width="9" height="18" viewBox="0 0 9 18">
    <path fill="#EB8F12" fill-rule="evenodd" d="M2.176 9.399c.043.055.019.433.019.504l.002 7.987h3.465c.02-2.102 0-4.26 0-6.372 0-.03-.007-2.046.003-2.088.006-.027.006-.024.014-.036.005 0 2.203.018 2.281 0l.038-.011.305-2.916h-2.63c-.01-.43.002-.873.002-1.305 0-.394-.009-.881.226-1.097l2.388-.24L8.285.9C7.833.873 7.297.897 6.835.897c-.479 0-.964-.01-1.436.022-.9.06-1.625.327-2.151.775-.761 1.22-1.055.171-1.06 4.774H.446l.004 2.93h1.726z"/>
</svg>
